<?xml version="1.0" encoding="utf-8"?>
<!-- Generator: Adobe Illustrator 19.2.0, SVG Export Plug-In . SVG Version: 6.00 Build 0)  -->
<!DOCTYPE svg PUBLIC "-//W3C//DTD SVG 1.1//EN" "http://www.w3.org/Graphics/SVG/1.1/DTD/svg11.dtd">
<svg version="1.1" xmlns="http://www.w3.org/2000/svg" xmlns:xlink="http://www.w3.org/1999/xlink" x="0px" y="0px" width="457px"
	 height="293.4px" viewBox="0 0 457 293.4" style="enable-background:new 0 0 457 293.4;" xml:space="preserve" class="illustration">

<g id="fill">
	<path class="st0" d="M447.3,231.3c-3.9-5.6-8.3-8.3-14.3-11.2c-4-1.9-7.8-3.6-11.7-3.7c-0.1-4.5-1.9-9.2-2.7-13.6
		c-1.5-8-5.3-15.6-9.6-22.4c-1.8-2.8-3.5-5.4-5.6-8c-0.6-0.7-1.1-1.3-1.7-1.9c-1-2.5-2.7-4.3-5.1-6c-1.4-1-3-1.5-4.7-1.8
		c-4.5-3.3-9-5.5-14.8-7c-7.6-2-14.8-5-22.4-6.9c-2.7-0.7-5.6-1.1-8.3-2c-1.4-1.9-2.9-3.6-4.4-5.3c0-0.6,0-1.2,0.1-1.7
		c1.2-1.1,1.6-2.5,1-3.9c0-0.6-0.1-1.2-0.4-1.7c-0.2,0.1-0.4,0.3-0.5,0.4c-2.4-2.5-5.7-3.1-8.9-3.8c-0.6-0.1-1.1-0.2-1.7-0.2
		c-0.4-8.1-0.3-15.2-1.1-22.7c-0.3-3.4-0.1-9.2-2.3-12.5c0-0.3,0-0.5,0-0.8c0.1-0.1,0.1-0.3,0.2-0.4c4.7-5.3,5.7-15.7,6.6-21.4
		c0.8-5.4,1.1-11,0-16.4c-0.7-3.5-2-6.9-3.4-10.2c-1.6-9-4.7-17.6-11-24.4c-4.3-4.7-10.5-7.5-16.4-9.7c-6.2-2.3-12.7-4-19.3-4.7
		c-6-0.6-11.5,1.1-17.5,1.3c-3,0.1-6.5-1-9.5-1.7c-0.9-0.2-4.7-1.4-5.1-2c-0.9-1.3-3-1.2-3.4,0.5c-0.6,1.9,0,3.7,1.3,5.3
		c-0.8,0.1-1.6,0.7-1.7,1.5c-0.3-0.1-0.6-0.1-0.9-0.1c0,0-0.1,0-0.1,0c-0.5,0-1.1,0.1-1.6,0.3l0.1,0.1c-0.1,0-0.1,0-0.2,0.1
		c-1.8-0.6-3.7-0.8-5.4-0.3c-2.2,0.7-2.9,3.9-0.7,5.1c1.6,0.8,3.2,4.3,3.6,5.9c0.4,1.9,3,4,4.2,5.4c2.1,2.2,4.3,4.2,6.9,5.9
		c0.7,0.5,1.4,1,2.1,1.5c5.6,8.7,7.1,21.4,8.1,31c2.3,0.7,4.2,3.2,4.2,5.6c-0.1,8-0.9,15.6-3.5,23c0.3,0.7,0.7,1.5,0.9,2.1
		c0.4,1.1,1.4,11.3,0.7,14c1.9,3.1,3.5,6.3,4.8,9.6c0,0,0,0,0.1,0.1c0,0.1,0.1,0.1,0.1,0.2c0,0.1,0,0.2,0.1,0.2
		c1.4,3.6,2.3,7.3,2.9,11.1c1.3-0.6,2.6-1.2,4-1.8c0.4,1.5,1.3,2.7,1.9,4.3c0.2,0.9,0.4,1.7,0.6,2.6c-0.1,2.4-2.3,4-4.2,5.6
		c-0.3,0.3-0.4,0.6-0.4,0.9c-0.5,0.3-1,0.5-1.5,0.8c0.3,0.4,0.7,0.7,1,1.1c2.1,2,3.3,3.6,4.5,6.4c1.9,4.7,3.1,9,2,14.1
		c-0.1,0.4,0,0.7,0.1,1.1c-3.2,4.9-10.7,5.4-16.3,7.7c-3.1,1.3-7.5,2.3-10.2,4.7c-0.3,0.2-0.6,0.4-0.8,0.6c-1.3,1-1.9,2.2-2.4,3.8
		c-0.3,0.9,0,2-0.1,2.9c-0.2,1.5-1,3.2-1.4,4.6c-1.8,5.8-4.2,11.4-7,16.8c-2.3,4.4-5.4,8.6-6.2,13.6c-0.9,5.4-1.9,10.6-3.1,16
		c-0.2,1-0.5,2.1-0.7,3.2c-0.9,16-4.2,32.3-9.7,47.3c2.3,0.7,4.5,1.4,6.8,1.9c10.6,2.5,21.4-1.5,32.1-2c2.3-0.1,4.7-0.3,7,0.3
		c2,0.5,3.7,1,5.8,1.2c4.7,0.4,10.1-0.4,14.7-1.1c5.9-0.8,11.7-1.7,17.7-2.2c6.4-0.6,12.9-0.1,19.3-0.1c11.9,0.1,23.8-0.2,35.7-0.7
		c12-0.5,24-0.5,35.9-2.3c4.7-0.7,9.4-1.9,14.2-2c3.1-0.1,5.8-0.6,8.9-0.2c2.8,0.4,5.8,2.1,8.7,2c7.2-0.2,9-6.7,10.6-12.7
		c0.8-3,1.5-5.9,2.1-8.9c0.8-1.3,1.2-3,1.6-4.3c1-3.4,1.8-6.8,2.5-10.3C449.7,242,450.7,236.3,447.3,231.3z"/>
</g>
<g id="line">
	<g>
		<path class="st1" d="M447.2,217.5c-6.1-4-13.1-5.2-20.2-5.6c-1.2-4-2.5-7.9-4-11.8c-3.2-8.4-7.9-15.7-13.1-23
			c-3.7-5.1-7.2-11.2-12.5-14.9c-0.8-0.6-1.7-0.5-2.3,0c-8.7-5.6-17.7-10-27.5-13.4c-5.4-1.9-11.2-3.2-16.8-4.2
			c-1-0.2-6.2-0.5-7-2.1c0.4-0.7,0.6-1.5,0.9-2.3c0.6-1.6,1.4-3.2,1.2-5c0-0.5-0.3-0.9-0.6-1.2c-1.1-3.5-4.8-3.9-8.4-3.9
			c-0.5,0-1.1,0-1.6-0.1c0-0.2-0.2-0.3-0.2-0.5c0,0,0,0,0,0c0-0.2,0.6-0.4,0.8-0.6c-0.9,0-1.7,0.2-2.5,0.5c0.4-4.5,0.3-8.9-0.3-13.3
			c-0.8-5.8-3.6-13.5-2.1-19.7c0.6-0.8,1.1-1.6,1.6-2.5c1.1-2,1.7-4,2.1-6.2c0.2-0.1,0.4-0.3,0.5-0.4c0,0,0.1,0,0.1-0.1
			c1-5.2,0.8-10.3,1.7-15.5c0.4-2.3,0.1-4.5-0.4-6.8c0-0.2,0-0.4,0-0.7c0.3-0.3,0.5-0.6,0.6-1.1c4-16-4.8-35.6-16.9-45.9
			c-5.9-5-12.8-9.5-20.3-11.6c-3.6-1-7.5-1.3-11.2-1.5c-2.6-0.2-5.1,0.4-7.5,1c-4.1,0.1-8.2,0.5-12.5,1.1c-0.2-0.2-0.5-0.3-0.9-0.4
			C262,5.4,257.4,4,252.3,1.4c-2.5-1.2-5-2.2-7.4-0.4c-2.9,2.3,0.5,6.3,2.9,9c-4.1,0.2-9.1-0.9-11.8,2.5c-2.1,2.7,0.5,4.3,3.3,5
			c0.2,2.3,0.4,4.1-1.2,6.1c-1.7,2-3.2,4.3-4.2,6.7c-3.5,8.5-2.9,17.5-2.3,26.4c0,0,0,0.1,0,0.1c0,0.2,0,0.3,0,0.5
			c-0.1,9.1-0.4,16.2-4.1,24.7c-1.9,4.3-6.5,6.4-5.3,11.2c1.1,4.2,7.1,6.7,10.8,7.2c0.3,0.1,0.6,0,0.9,0c-0.6,2.2-0.7,4.4-1.8,6.4
			c-1,1.7-1.5,4.1,0.4,5.4c1.9,1.3,3.4,2,5.6,2.3c0.4,0.6,1.2,0.7,1.9,0.4c0.4,0,0.9,0,1.3-0.1c0.5,0,0.9,0,1.4,0.1
			c-0.3,0.5-0.7,0.9-1.1,1.3c-0.4,0.4-1.2,0.9-1.4,1c-0.1,0.1-0.3,0.2-0.4,0.4c-2.2,0.3-4.6,0-6.1,1.7c0,0,0,0.1-0.1,0.1
			c-0.4,0.2-0.6,0.6-0.6,1.1c0.4,4.4,2.6,9.7,7,11.5c6.7,2.8,13.8,5.9,21,7.2c0.6,0.1,1.2-0.1,1.6-0.6c0.4,0.3,0.8,0.6,1.2,0.9
			c1.2,0.8,2.2,1.9,3.7,2.2c0.8,0.2,1.5-0.8,0.9-1.5c-1-1-2.4-1.7-3.5-2.5c-0.5-0.3-1.1-0.7-1.7-0.9c-0.1-0.3-0.4-0.6-0.8-0.8
			c-8.7-3.7-23.8-4.3-26.4-15.1c1.3-0.1,2.7-0.4,3.9-0.5c0.8-0.1,1.8-0.4,2.7-0.8c-0.1-0.1-0.1-0.2-0.2-0.3c1.6-0.7,3-2.7,3.5-4.1
			c0.4-1.2-0.1-2.4-1.2-3.1c-0.8-0.5-1.6-0.6-2.5-0.6c0.1-0.2,0.1-0.3,0.2-0.5c-1.7,0.1-4.3,0.5-5.8-0.4c-0.6-0.4-1.2-0.7-1.8-1.1
			c-0.5-0.3,1.2-3,1.3-3.4c0.4-1,0.5-2.1,0.6-3.1c0.5-0.1,0.9-0.5,1-1.2c0.1-0.8,0.1-1.6,0-2.4c0.1-0.4,0.1-0.8-0.1-1.2
			c-0.2-1-0.4-2-0.6-3.1c-0.7-3.1,0.5-5.8,0.5-8.8c0-1.3-1.7-1.4-2.1-0.3c-0.9,2.3-1.2,4.8-1.3,7.3c0,1,0.1,1.9,0.3,2.9
			c-0.1,0-0.1-0.1-0.2-0.1c-7.4-2.8-7.3-4.4-4-9.9c2.3-3.8,3.5-8.3,4.8-12.5c1.2-4.1,1-7.2,0.7-11.4c-0.1-1.3-0.3-2.9-0.5-4.7
			c0.2-0.3,0.4-0.6,0.4-1.1c0.5-8.7-1-20.5,3.5-28.3c3-5.1,3.2-5.6,2.4-10.5c0.6,0,1.2,0,1.6-0.1c1.1-0.2,1-1.9,0-2.2
			c-1.1-0.3-2.3-0.7-3.4-1.1c-0.9-0.3-1.4,0.1-0.5-0.5c0.8-0.5,2.1-0.6,3-0.7c2.7-0.3,5.4-0.1,8-0.8c1.3,0.8,3.4-0.6,2.8-2.2
			c-0.4-1.1-1-2.2-1.7-3.2c-0.4-0.6-0.8-1.2-1.2-1.7c1.3,0.6,2.8,1.6,3.7,1.9c1.5,0.6,3,1.1,4.5,1.5c2.3,0.6,4.6,0.6,7,0.4
			c0,0.6,0.3,1.1,0.6,1.6c0.3-0.2,0.7-0.4,1.2-0.5c15.6-2,35.4,0.6,48.6,9.3c-0.1-0.1-0.2-0.3-0.3-0.4c0.4,0.3,0.8,0.6,1.2,0.9
			c8.1,5.6,13.5,13.6,13.6,24.4c0.3,1.7,0.5,3.3,0.7,5c0.7,4,1,8.1,1,12.2c0.1,0.5,0.2,1,0.3,1.5c0.2,0.7,0.6,1.2,1.1,1.5
			c0.1,2.5,0.2,4.9,0.2,7.3c-0.3,1.8-0.8,3.7-0.9,5.5c-0.1,1.7-0.4,3.5-0.7,5.3c-0.4,0.3-0.7,0.8-0.7,1.4c-0.2,1.8-0.6,3.9-1.3,6
			c-2.3,2.7-6.5,9.4-8,8.9c-2-0.6-4.9,1.1-6.8,1.9c-1.4,0.6-2.6,0.8-3.9,1c-4.2-0.1-19.9,0.2-23.9,0.8c-2.7,0.4-3.9,1.5-5.6-1
			c-1.1-1.6-1.5-1.9-2.9-3.2c-0.5-0.4-1-0.8-1.5-1.2c0,0,0,0,0.1,0c0-0.1,0.1-0.2,0.2-0.3c0-0.4,0.1-0.7,0.2-1.1
			c-1-0.9-2.2-1.8-3.5-2.2c-0.1,0-0.2-0.1-0.3-0.1c-1.2-0.3-2.1-0.6-2.6-0.8c1.5-3.8,1.9-8.5,1.5-12.1c-0.1-0.5-0.3-0.9-0.6-1.1
			c0.2-1.7,0.3-3.5,0.1-5.2c0.1-3.3-0.1-7.6-2.3-10c-3.6-3.8-7.6,0.1-10.4,2.9c-1.2,1.2,0.5,2.8,1.8,1.8c0.9-0.7,5.2-4.7,6.6-1.3
			c0.5,1.1,0.6,2.5,0.7,3.6c0.2,1.9-0.1,3.8-0.3,5.7c-0.5,4.4-1.5,12.6-6.7,13.5c-1.9,0.3-1.8,3.3,0,3.7c0,0,0,0,0,0
			c2,2.8,4.7,5.8,7.7,2c0,0,0.1-0.1,0.1-0.1c0.1,0.1,0.4,0.2,0.6,0.2c3.6,2.5,7,4.8,9.6,8.8c1.6,2.5,5,2.4,7.6,2.8
			c6,0.9,23.6-0.2,29.6,0.8c2.8,0.5,4.6,0.1,6.7-1.7c0.8-0.1,1.7-0.4,2.3-0.8c0.4-0.3,0.7-0.6,1-0.9c0,0.2,0,0.3,0,0.5
			c0.3,4.4,1.2,8.8,1.7,13.3c0.4,3.7,0.1,7.4,0.1,11.1c-1.6,0.3-3.3,0.5-4.9,0.9c-0.2,0-0.5,0-0.7,0.1c0,0,0.1,0,0.1,0
			c-0.1,0-0.2,0-0.3,0.1c0,0,0,0,0,0c-0.3,0.1-0.5,0.2-0.7,0.4c-8.5,1-19.5-0.5-23.6-0.5c-8.1,0-15,2.8-20.7,8.2
			c-1.8,0.9-3.5,1.9-5.3,3.3c-3.8,2.9-8,5-11.8,7.8c-0.9,0.7-1.3,1.6-1.4,2.5c-0.7,0.9-0.7,2.6,0.5,3.3c1.9,1.2,3.3,2.8,4.6,4.5
			c0.2-0.3,0.4-0.5,0.7-0.7c0,0,0.1,0,0.1-0.1c0.2,0.1,0.4,0.2,0.5,0.4c0,0.5,0.1,1,0.2,1.5c0,0,0,0.1,0,0.1
			c-1.9,4.8-14.2,10.4-17.6,12c-5.3,2.4-10.3,7-11.9,12.7c-2.1,2.4-4.2,4.8-6,7.3c-4.7,6.7-7.6,14.6-10.5,22.2
			c-2.8,7.4-2.2,14.8-3.9,22.4c-1.4,6.1-4.4,12.8-3.7,19.1c0.3,2.1,2.5,2.7,3.8,1c7.3-9.8,7-25.8,10.2-37.3
			c2.2-7.9,5.8-16.9,10.3-23.8c3.4-5.1,7.6-10.8,10-16.5c3.9-3.5,9.1-6,13.3-8.6c3.1-1.9,6-5.5,8.8-7.9c0.7-0.6,1-1.3,1.1-2.1
			c0.2-0.2,0.3-0.5,0.3-0.8c0.2-1,0.3-1.9,0.2-2.9c0-0.8-0.4-1.7-1.2-2.1c-0.6-0.3-1.2-0.6-1.8-0.9c0,0-0.5-0.4-0.7-0.5
			c-0.1-0.3-0.3-0.6-0.5-0.8c2.8-1.4,5.3-3.6,7.6-5.5c1.7-1.4,3.3-2.8,5-4.2c0.4-0.1,0.7-0.3,1-0.6c12.3-10.1,26.1-6.2,40.6-8.8
			c1.9-0.3,3.7-0.6,5.5-1c5,0.6,10.2,0,14.8,1.8c-0.1,0.3-0.1,0.6-0.2,0.9c-0.1,0.2-0.3,0.4-0.4,0.6c-0.7,1.3-1.4,3.2-0.8,4.7
			c0.2,0.5,0.6,0.9,1,1.2c0.2,0.5,0.4,1,0.7,1.5c0.2,0.3,0.5,0.6,0.8,0.9c-10.3-0.4-20.2,0-30.6,0.3c-1.4,0-1.3,1.9,0,2
			c10.4,1.3,21.1-0.8,31.6-1.5c2.6,1.7,6.3,2.2,9,2.9c14.6,3.5,28.2,10.7,41.7,17.2c0.9,0.4,1.7,0.4,2.3,0.1
			c3.7,4.7,6.3,11.1,9.3,16c4.9,8,8.6,16.2,11.4,25.1c0.3,1.1,0.7,2.1,1,3.2c-10.2,0-20.5,0.3-30.7,0.5c-13.1,0.3-26.2,0.1-39.2,1.5
			c-11.9,1.2-23.7,4-35.5,6c-10.4,1.8-16.9,7.3-22.4,16c-7.3,11.7-7,24.5-10,37.5c-0.6,2.8,3.2,4.6,4.7,2c8.8-16,8.9-38.6,29.3-43.7
			c-0.8,1.2-1.6,2.4-2.4,3.6c-2.4,3.4-3.1,8.1-4.2,12c-2.1,7.5-4,14.9-6.2,22.3c-0.4,1.5,1.8,2.4,2.5,1.1c4.4-8.7,5.8-18.7,8.2-28.1
			c0.6-2.2,3.5-8.3,6.8-11.8c19.4-3.7,38.6-5.5,58.4-5.5c14.4-0.1,29.7-1.8,44.4-1c0,0.1,0,0.2,0.1,0.2c3.7-0.7,7.8-0.3,11.5,1
			c6,1.1,9.2,4.1,10.4,8.3c0.9,1.7,1.6,3.6,1.7,5.7c1.2,14.1-6.6,26.7-8.4,40.2c2.8,2.2,8.2,1.5,9.3-2.7
			C450.2,259.4,467.8,230.9,447.2,217.5z M332,130c-0.8,0.5-1.5,0.5-2.1,0.2c0.8-0.2,1.6-0.3,2.4-0.3
			C332.2,129.9,332.1,129.9,332,130z"/>
		<path class="st1" d="M289.5,171.9c16-1,31.6-3.8,47.7-3.8c9.3,0,18.6,0.3,28,0.6c8.7,0.3,19.8-0.2,28.1,2.1
			c1.4,0.4,1.9-1.8,0.6-2.1c-34.2-6.6-70.5-4.2-104.7,0.7c-0.4,0.1-0.6,0.3-0.8,0.6c-1.9-0.2-3.9-0.5-5.7-0.4
			c-3.5,0.3-6.9,1-10.4,1.4c-4.5,0.4-9.4,0.9-12.4,4.5c-0.5,0.6,0,1.7,0.8,1.4c4.8-1.3,9.1-2.5,14-3.2c4.5-0.7,9.3-1.2,13.8-2.4
			C288.6,171.6,289,171.9,289.5,171.9z"/>
		<path class="st1" d="M280.7,134.8c1.2,0.7,2.2-0.8,1.4-1.8c-2.2-2.8-7.6-5-11.2-4.1c-2.8,0.7-5.4,1.7-8.3,1.8
			c-3.2,0.1-6.3-0.5-9.5-0.2c-0.8,0.1-0.8,1.3,0,1.2c4.4-0.2,8.8,1,13.2,1c1.3,0,3-0.5,4.3-1C274.1,130.5,277.8,133.1,280.7,134.8z"
			/>
		<path class="st1" d="M211.7,264.5c-1.1,0.6-1.7,1.5-2.1,2.6c-0.4,1.1-0.7,2.1-1,3.2c-0.2,0.9,0.7,2,1.6,1.6c1.4-0.5,2-1.2,2.5-2.5
			c0.2-0.4,0.2-0.9,0.4-1.3c0.1-0.3,0.1-0.3,0.4-0.5C215.5,266.4,213.8,263.4,211.7,264.5z"/>
		<path class="st1" d="M269,218.1c1.6-6.5-2.2-12.8-4.8-18.5c-2-4.5-6.8-12.9-12.2-13.8c-1.4-0.2-2,1.7-0.6,2.1
			c5,1.8,9.2,11.8,11,16.3c1.1,2.8,2.6,5,3,8.1c0.2,2.2,0.8,4,1.9,5.9C267.7,219.1,268.8,218.9,269,218.1z"/>
		<path class="st1" d="M270,226.7c-0.2-1.2-2.1-0.9-2.1,0.3c0,11.8,2.2,23.8,1.6,35.5c-0.1,1.7,2.5,1.7,2.6,0
			c0.4-5.9-0.9-11.2-0.8-16.9C271.4,239,271,233.1,270,226.7z"/>
		<path class="st1" d="M441.4,285.3c-0.8-0.9-2.2-1.2-3.6-0.6c-0.3,0.1-0.5,0.3-0.7,0.5c-0.1,0-0.2,0.1-0.3,0.1
			c-1.7,1-2.2,3.2-1.3,4.9c0.2,0.8,0.5,1.5,1.1,2c2.5,2.6,6.3,0.2,6.8-2.8C443.6,287.5,442.9,286,441.4,285.3z"/>
		<path class="st1" d="M281.5,282c-0.1,0-0.3-0.1-0.4-0.1c-1-0.1-2,0.4-2.3,1.7c-0.1,0.3-0.1,0.5-0.1,0.8c-0.2,0.5-0.4,1-0.5,1.6
			c-0.6,2.3,2.3,4,3.9,2.3c1-1.1,1.4-2.5,1.3-3.9C283.6,283.1,282.7,282.3,281.5,282z"/>
		<path class="st1" d="M296.4,284.2c0,0.8-0.1,1.6-0.1,2.4c-0.1,1.5,2.4,1.5,2.3,0c0-0.8-0.1-1.6-0.1-2.4
			C298.5,282.9,296.5,282.9,296.4,284.2z"/>
		<path class="st1" d="M215.6,214c1.1,1.5,3.7,1.1,4-1.2c1.5-12,0.5-24.6,0.5-36.7c0-12.2,0.3-24.3,0.4-36.5
			c0.1-25.3,1.1-51.2-1.5-76.3c-0.1-1.4-1.4-1.8-2.3-1.3c-0.3-0.2-0.7-0.3-1.2-0.3c-2.4,0-5.2-0.1-7.6,0.4c-0.4,0.1-0.8,0.2-1.1,0.3
			c-5.1-1.7-11.8,0.1-17,0.1c-3.9,0-8.7,1.2-13.2,1.9c0,0-0.1,0-0.1,0c-0.2,0-0.4,0.1-0.5,0.1c-3.2,0.4-6.3,0.6-8.9-0.2
			c-0.7-0.2-1.3,0.1-1.7,0.6c-5-0.7-10.3,0.6-15.4,0.8c-1.8,0.1-3.6,0.3-5.4,0.5c-0.4-2.5-1.2-4.9-3.3-6.5c-2.1-1.7-4.1-3.2-6.7-4.2
			c-2-0.8-3.7-1.9-5.7-2c4.2-5.6,6.1-13,4.7-20.3C129.8,14.3,113,1.3,94,5.3C74.4,9.5,71.8,36.6,79.2,51.2c0.4,0.8,0.9,1.6,1.5,2.4
			c-0.1,0-0.2,0.1-0.4,0.1c-1.1,0.6-2.2,1.4-3.3,2c-1.9,1.1-3.3,2.8-4.6,4.5c-2.4,3.2-4.5,6.6-4.9,10.6C45.7,72,23.5,71.4,1.8,75
			c-2.2,0.4-2.4,3.2-0.4,3.6c-0.9,23.1-0.9,46.1-1,69.1c-0.1,24.8-1,50,0.2,74.7c0,0.7,0.3,1.2,0.7,1.6c-0.2,0.9,0.3,1.9,1.5,1.9
			c23.3,0.5,47-1.8,70.4-3.3c-0.3,6.7-0.3,13-7.5,16c-4.8,2-9,5.4-13.2,8.4c-2,1.4-0.2,4.5,1.9,3.3c3.3-1.9,6.4-4.2,9.6-6.3
			c2.7-1.7,6.2-2.5,8.6-4.8c2.8-2.6,3.7-6,4-9.7c0.5-0.3,0.8-0.8,0.9-1.6c0-0.3,0-0.5,0-0.8c6.8,2.5,14.2,1.5,21.6,1.5
			c7.1,0,16.3,0.5,23.3-1.6c0.1,0.1,0.3,0.2,0.4,0.3c0.4,4.1,2.4,7.7,7.1,9.6c15.5,6.3,33.3,11.5,49.7,15c3.4,0.7,4.7-4.1,1.4-5.2
			c-9-3.1-18-6.3-27.1-9.2c-8.8-2.8-25.6-3.3-27.8-13.5c0.5-1.2,0.4-2.6-0.2-3.8c0-0.2,0-0.4,0.1-0.7c7.3-0.5,14.5-1.1,21.7-1.9
			c10.6,0.3,21.3,0.5,31.8-0.1c6-0.3,12.1-1.3,18.1-1.9C203.7,215,209.7,215.5,215.6,214C215.6,214,215.6,214,215.6,214z
			 M137.7,62.2c3.1,2.3,3.1,7,4.2,10.7c-0.1,0-0.3,0-0.5,0.1c-2.2,0.7-4.1,1.8-6.4,2.3c-4,0.9-4.8-3.2-6-6.2c-0.1-1.5-0.3-3-1.1-4.4
			c-1.2-2-3.8-3.1-6.5-3.8c0.4-0.2,0.7-0.4,1.1-0.6c0.6-0.4,0.8-1,0.9-1.6c1-0.7,1.8-1.4,2.7-2.2c0.1,0.1,0.3,0.3,0.5,0.4
			C130.3,58.6,134.3,59.7,137.7,62.2z M124.1,66.5c-8.9,0.4-17.8,1.2-26.8,2c0.2-0.1,0.3-0.3,0.4-0.5c1.5-2.8,5.2-2.8,8-3.2
			c2.7,0,5.3-0.3,7.8-0.8c2.1-0.1,4.3,0,6.5,0.4C122,64.7,123.3,65.5,124.1,66.5z M95.2,9.9c27.4-8.1,43.9,32.9,25.5,46.8
			c-10.6,3.4-21.6,4.8-31.7-1.3C73.1,45.8,78.1,15,95.2,9.9z M75.7,61.5c1.3-1.6,3.1-2.6,4.8-3.7c0.9-0.6,1.9-0.8,2.8-1.2
			c3.5,3.3,8.1,5.7,13.1,7c-1,0.8-1.8,1.9-2.5,3.6c-0.2,0.6-0.1,1.2,0.2,1.7c-0.2,0-0.4,0-0.7,0.1c0.3,0.5,0.6,1,0.8,1.5
			c-0.2,0.1-0.5,0.3-0.7,0.6c-1,1.3-1.1,2.6-1.4,4.2c-0.5,2.3-1.4,2.7-3.7,2.7c-0.4,0-3,0-4.2-0.3c0.1-0.3,0.2-0.7,0-1.1
			c-0.5-1.3-0.6-2.5-0.5-3.8c0.1-1.2,0.3-2.2-0.3-3.3c-0.4-0.7-1.5-0.7-1.9,0c-0.2,0.3-0.3,0.6-0.3,0.9c-0.2,0-0.5,0-0.7,0.1
			c0-0.1-0.1-0.2-0.1-0.3c-2.9,0.2-5.9,0.5-8.8,0.7c-0.5,0-0.9,0-1.4,0.1C71.2,67.3,73.5,64.2,75.7,61.5z M215.3,68.2
			c-1.9,22.4-1.2,45.3-1.1,67.7c0.1,12.2,0.4,24.3,0.4,36.5c0,11.5-0.9,23.5,0,35.1c-0.3-0.1-0.6-0.1-1,0
			c-20.6,4.7-43.6,3.9-64.7,4.4c-0.8,0-1.4,0.4-1.7,1c-23.6,0.5-47.5,2.6-71.2,4.1c-23.6,1.5-47.5,2.1-71.1,5.3c0-0.1,0-0.1,0.1-0.2
			c1.1-23.6,0.2-47.3,0.2-70.8c-0.1-24.2,0-48.5-1-72.6c22.3,0.6,45.1-3.1,67.4-4.4c2.7-0.2,5.4-0.3,8.2-0.4
			c0.1,0.8,0.3,1.6,0.3,2.4c0,1.2-0.1,2.3,0.9,3.2c2,1.9,4.4,2,7,2.2c2.6,0.2,5.2,0,6.9-2.2c1.4-1.6,2-4.1,2.1-6.4
			c9.7-0.3,19.3-0.7,29-1.5c0,0.6,0.1,1.3,0.1,2c0,0.6,0.4,1,0.8,1.3c1.1,3.2,3.5,5.5,8,5.3c3.1-0.2,7.3-1.5,10-3
			c2.6-1.5,2.7-4.3,2.4-7c6.6,0.5,13.1,0.9,19.1-0.9c0.3,0,0.5,0.1,0.8,0.1c3.1,0.1,6.8,1.1,9.7-0.4c3.6-0.1,7.2-0.6,10.5-0.5
			c4.6,0,9.8,0.2,14.7-0.6c3.7,0.6,9.4,1.4,12.5-0.5c0.3,0,0.6,0,0.9,0C215.4,67.7,215.3,68,215.3,68.2z"/>
		<path class="st1" d="M83.7,66.1c0.4-0.8,0.6-1.9,1.2-2.5c0.5-0.5-0.3-1.2-0.7-0.7c-0.7,0.8-1,1.8-1.4,2.7
			C82.5,66.2,83.4,66.7,83.7,66.1z"/>
		<path class="st1" d="M105.3,48.4c6.3,4.1,15.9-1.4,19.2-6.9c2.8-4.6,1.3-11-2.3-15.1c0.1-0.2,0-0.5-0.2-0.7c-2.3-2.9-6.3-4-10-4.4
			c-5-0.5-7.4,1.8-10.7,5.3C94.8,33.3,98.3,43.9,105.3,48.4z M101.6,32.1c1.5-5.7,7.4-8.7,12.9-8.1c0.1,0.2,0.2,0.5,0.5,0.6
			c5.7,3,10.4,8.7,7.2,15.5c-2.1,4.4-8.8,7.4-13.5,6.5C102,45.5,100.2,37.6,101.6,32.1z"/>
		<path class="st1" d="M114.5,43.5c7.2-2.2,8.2-12.3,1.5-15.8c-2.8-1.4-5.6-1.6-7.9-0.2c-1,0-2,0.3-2.8,1.1
			c-0.8,0.8-1.1,1.8-1.1,2.8c0,0,0,0.1,0,0.1c-1.5,2.5-0.7,6,0.9,8.3C107.3,42.9,110.7,44.6,114.5,43.5z"/>
		<path class="st1" d="M207.7,78.5c1-1.4-0.2-4-2.3-3.3c-3.8,1.1-7.2,0.1-10.9-0.1c-3.4-0.2-7,0.9-10.3,1.1
			c-5.7,0.2-12.8,0.3-18.6,1.8c-0.5,0-1,0-1.5,0c-2,0-3.9,0.8-5.8,1c-1.6,0.2-3.3,0-4.9,0c-0.6,0-1,0.2-1.3,0.5
			c-12.1,1.2-24.2,3.1-36.3,4.6c-0.1,0-0.1,0.2,0,0.2c14.4,1.5,30.5,0.6,44.8-1.8c0.5-0.1,0.8-0.3,1-0.7c0.8-0.1,1.6-0.2,2.4-0.3
			c1.9-0.2,3.9,0,5.8,0c1.4,0,2.7-0.5,4.1-0.9c0.5,0,0.9,0,1.4-0.1c4-0.4,7.9-0.7,11.9-0.8c3.9,0,7.3-1,11.3-0.1
			c2.5,0.6,4.7,0.4,7-0.1c-1.8,18.8-0.7,38.3-0.6,57.2c0.1,20.7-1.5,42.2,0.6,62.8c0,0.1,0.1,0.2,0.1,0.3c-0.1-0.1-0.3-0.3-0.5-0.3
			c-3-1-6.3-1-9.4-1.4c-3-0.4-7.2,2.1-10.2,1.1c-5.6-1.8-13.8,0.7-20.4,2.2c-23.5-1.2-46.7,3.1-70.2,3.1c-26.7,0-53.1,4.3-79.7,6
			C15,190.9,15,171.2,15,151.5c0-19.9,1.2-40.4-0.5-60.2c4-2.7,16.6-1.4,19.6-1.8c8.6-1.1,17.4-0.5,26.1-1.3
			c9.2-0.9,18.3-0.8,27.4-1.9c8-1,16.6,1.2,24.2-1.4c0.9-0.3,0.5-1.6-0.4-1.4c-10.2,1.6-21.5,0.9-31.9,1.5
			c-10.3,0.6-20.7,0-31.1,0.3c-8.7,0.2-17.4,1.4-26.1,1.5c-4.7,0-10.3,0.1-11.4,5.4c-0.2,1,0.6,1.6,1.4,1.6
			c-1.4,19.1-0.3,38.7-0.3,57.8c0,20.4,0,40.8-0.1,61.1c0,1.8,2.4,2,3,0.7c25.6-0.6,51.2-5,76.8-5c22.9,0,45.5-3.3,68.3-3.8
			c0.2,0.1,0.3,0.1,0.6,0.1c1,0,2-0.1,3-0.2c0.9,0,1.7,0,2.6,0c0.5,0,0.8-0.2,1.1-0.5c2.7-0.4,5.6-0.9,8.4-1.2
			c0.3,0.4,0.8,0.7,1.4,0.7c1.7,0,3.6,0,5.2-0.8c1.1,0.1,2.1,0.3,3,0.7c2.7,1,7.4-0.8,10.2-1.2c3.3-0.4,6.1,1.1,9.4-0.1
			c0.8-0.3,1.1-1.1,0.9-1.8c0.6,0.5,1.8,0.2,1.9-0.9c1.9-19.3,0.4-39.4,0.5-58.9C208.4,120.1,209.8,98.9,207.7,78.5z"/>
		<path class="st1" d="M133.8,21.9c3.6,0,7-0.9,10.5-1.6c3.3-0.6,7.5-0.9,10.3-2.9c0.9-0.6,1-2.3-0.3-2.6c-3-0.6-5.6,0.7-8.5,1.6
			c-3.9,1.2-8,2.6-12,2.9C132.2,19.4,132.1,21.9,133.8,21.9z"/>
		<path class="st1" d="M160.8,14.8c0.8,0,1.7-0.1,2.5-0.1c2.1-0.1,2.1-3.2,0-3.2c-0.8,0-1.7-0.1-2.5-0.1
			C158.6,11.3,158.6,14.9,160.8,14.8z"/>
		<path class="st1" d="M190,251.1c-1-0.2-2-0.2-3-0.2c-2,0-2,2.8,0,2.8c1,0,2,0,2.9-0.2C191.1,253.3,191.2,251.3,190,251.1z"/>
	</g>
</g>
</svg>
